<?xml version="1.0" encoding="UTF-8" standalone="no"?>
<!-- Created with Inkscape (http://www.inkscape.org/) -->

<svg
   width="1023.6592"
   height="643.48254"
   viewBox="0 0 1023.6592 643.48254"
   version="1.1"
   id="svg1"
   xml:space="preserve"
   xmlns="http://www.w3.org/2000/svg"
   xmlns:svg="http://www.w3.org/2000/svg"><defs
     id="defs1" /><g
     id="layer1"
     transform="translate(-448.17035,-218.18529)"><g
       id="g25"
       transform="translate(-245.92516,895.06457)"><g
         id="g24"><g
           id="g20"
           transform="translate(-524.7511,-74.409865)"><path
             d="m 2004.3033,-462.8201 c 3.1375,2.78506 3.6886,4.80091 4.1148,8.93202 -2.4384,2.96851 -2.4384,2.96851 -5.0888,5.08887 -8.0574,-3.18054 -8.0574,-3.18054 -11.8741,-5.08887 -8.4486,-0.92692 -15.0899,-0.91947 -22.7938,2.86249 -7.3324,6.61703 -10.537,12.66689 -11.1319,22.58185 1.6456,9.37999 4.4884,14.34398 11.874,20.35546 6.5963,4.03112 12.5334,3.77392 19.9778,2.72997 6.3626,-1.7444 9.463,-4.69375 13.948,-9.51512 0.5597,-2.2391 1.1195,-4.4782 1.6962,-6.78516 -7.8368,0 -15.6737,0 -23.748,0 0,-3.91842 0,-7.83685 0,-11.87402 12.3151,0 24.6301,0 37.3184,0 0,14.53598 -0.8719,19.88738 -7.7394,31.6994 -7.4851,7.1013 -17.5623,10.94765 -27.8827,11.55597 -12.098,-0.78209 -22.3861,-5.3523 -30.5332,-14.31244 -7.5101,-9.0807 -9.3765,-17.49604 -9.1109,-29.08871 1.4918,-11.71514 6.7538,-20.68872 16.0021,-27.94901 13.0806,-9.14346 31.1675,-8.39477 44.9715,-1.1927 z"
             fill="#000000"
             id="path1"
             style="fill:#757575;fill-opacity:1;stroke-width:1.69629" /><path
             d="m 2161.0841,-438.62148 c 0.5598,-0.55978 1.1196,-1.11955 1.6963,-1.69629 3.9574,-0.0694 7.9167,-0.072 11.874,0 0.1266,7.27143 0.2185,14.54226 0.2796,21.81446 0.025,2.46945 0.06,4.93883 0.1043,7.40801 0.062,3.56684 0.091,7.13267 0.1131,10.69996 0.027,2.14084 0.053,4.28168 0.081,6.48739 -0.6771,7.23726 -2.346,11.61602 -5.6666,18.04916 -6.6445,5.38748 -13.4931,7.25295 -22.0252,6.48036 -6.7066,-1.23543 -10.7893,-2.95833 -15.2931,-8.17665 -3.3926,-5.08886 -3.3926,-5.08886 -3.3926,-8.48144 4.4907,-2.47765 6.6062,-3.39258 11.874,-3.39258 1.0496,1.11955 2.0992,2.2391 3.1806,3.39258 3.3265,3.75743 3.3265,3.75743 7.9513,4.1347 4.8892,-0.87754 6.3582,-1.81943 9.2236,-5.83099 1.212,-3.56785 1.212,-3.56785 1.6963,-6.78516 -0.9665,0.56197 -1.933,1.12393 -2.9288,1.70292 -6.4749,2.83696 -12.4186,1.80601 -19.123,-0.007 -6.4515,-3.65541 -10.7901,-8.38533 -13.5703,-15.2666 -1.2019,-8.46949 -0.9355,-15.1252 2.9685,-22.79388 9.8187,-11.18243 16.7832,-12.46402 30.9573,-7.73932 z m -20.3555,15.2666 c -1.9092,5.98226 -2.1088,9.01742 0,14.94855 3.2784,4.2139 3.2784,4.2139 9.2236,5.51294 5.9753,0.39165 5.9753,0.39165 10.1777,-2.54444 3.6781,-6.03207 4.049,-11.02354 2.6505,-17.91705 -3.3379,-4.94509 -5.1859,-6.46531 -11.0259,-7.6333 -5.7096,1.14193 -7.5873,2.96663 -11.0259,7.6333 z"
             fill="#000000"
             id="path2"
             style="fill:#757575;fill-opacity:1;stroke-width:1.69629" /><path
             d="m 2064.2896,-434.69881 c 6.7932,8.85175 7.5237,15.06256 6.096,25.98105 -1.2918,5.76567 -3.2313,8.63469 -7.6863,12.50351 -8.148,4.79296 -14.3681,5.83173 -23.5029,4.35336 -8.3608,-2.20822 -12.664,-5.85174 -17.102,-13.15286 -2.6852,-9.63524 -1.9677,-17.45185 2.0144,-26.61054 4.3593,-5.29351 8.8753,-7.76375 15.2666,-10.07171 9.5186,-0.649 17.386,1.07074 24.9142,6.99719 z m -26.6105,7.10321 c -4.0036,4.44845 -4.486,5.37179 -4.7708,11.02588 0.3414,4.94584 0.9256,6.74135 3.7106,11.02588 5.2524,3.3173 8.0973,3.56262 14.2064,2.54443 4.3086,-2.32872 4.3086,-2.32872 6.7852,-6.78516 1.043,-4.75698 1.1376,-8.82535 0,-13.57031 -3.5743,-4.44365 -3.5743,-4.44365 -8.4815,-6.78515 -6.678,-0.54152 -6.678,-0.54152 -11.4499,2.54443 z"
             fill="#000000"
             id="path6"
             style="fill:#757575;fill-opacity:1;stroke-width:1.69629" /><path
             d="m 2232.3282,-438.62148 c 5.7233,4.59214 8.6923,9.81419 10.1777,16.96289 -3.4931,1.67241 -6.993,3.33062 -10.4958,4.98285 -1.9482,0.92494 -3.8965,1.84988 -5.9038,2.80285 -4.8289,2.04362 -8.9773,3.3212 -14.1336,4.08832 1.1196,1.67933 2.2391,3.35866 3.3926,5.08887 7.8692,1.04923 12.2469,-0.56255 18.6592,-5.08887 2.7989,1.67933 5.5977,3.35866 8.4814,5.08887 -2.3887,5.77289 -4.92,8.52569 -10.1777,11.87402 -7.9298,2.0675 -14.9028,2.38297 -22.6879,-0.21203 -5.8111,-4.15084 -9.7408,-8.66791 -12.9342,-15.05457 -0.9326,-8.5003 -0.9525,-15.09182 2.9685,-22.79388 9.7835,-11.14227 18.8116,-13.19223 32.6536,-7.73932 z m -19.9314,12.72217 c -1.2595,1.39944 -2.519,2.79887 -3.8166,4.24072 0.5597,1.11955 1.1195,2.2391 1.6962,3.39258 5.5978,-2.79888 11.1956,-5.59776 16.9629,-8.48145 -1.1195,-1.11955 -2.2391,-2.2391 -3.3925,-3.39257 -6.9991,-0.7607 -6.9991,-0.7607 -11.45,4.24072 z"
             fill="#000000"
             id="path7"
             style="fill:#757575;fill-opacity:1;stroke-width:1.69629" /><path
             d="m 2116.8746,-435.54696 c 5.7743,6.12427 6.7571,10.50308 7.4213,18.87122 -0.2036,6.75591 -1.8545,11.35729 -5.619,17.0689 -6.1513,5.68998 -10.5691,8.18721 -18.9772,9.01154 -7.7358,-0.63408 -13.8196,-2.59783 -20.0374,-7.31525 -5.8271,-7.80965 -6.1547,-14.32614 -5.8973,-23.82756 1.2695,-7.86647 4.6003,-12.26351 10.9861,-16.88337 11.262,-5.31225 21.7923,-3.30002 32.1235,3.07452 z m -30.4272,13.88837 c -1.2251,6.53389 -0.5137,9.26883 2.7565,15.05456 3.7862,4.01397 3.7862,4.01397 9.1175,4.55878 6.2206,-1.16636 8.1675,-2.66001 11.8741,-7.73932 1.8542,-5.16533 1.9029,-7.741 0.424,-13.04022 -1.9867,-4.40715 -1.9867,-4.40715 -7.2092,-7.31525 -8.4703,-1.56031 -11.9403,1.8804 -16.9629,8.48145 z"
             fill="#000000"
             id="path8"
             style="fill:#757575;fill-opacity:1;stroke-width:1.69629" /><path
             d="m 2181.4396,-465.76211 c 3.9184,0 7.8369,0 11.874,0 0,24.07034 0,48.14068 0,72.94043 -3.9184,0 -7.8368,0 -11.874,0 -3.2612,-3.26124 -1.9153,-8.10971 -1.932,-12.44864 0,-1.50719 0.01,-3.01439 0.01,-4.56726 0,-1.53727 0,-3.07453 0,-4.65838 0,-3.25695 0,-6.5139 0.01,-9.77085 0.01,-5.00364 0,-10.00703 -0.011,-15.01066 0,-3.15625 0,-6.3125 0.01,-9.46874 0,-1.5072 -0.01,-3.0144 -0.01,-4.56727 0.041,-10.55735 0.041,-10.55735 1.932,-12.44863 z"
             fill="#000000"
             id="path14"
             style="fill:#757575;fill-opacity:1;stroke-width:1.69629" /></g><g
           id="g21"
           transform="translate(-846.00313,81.86696)"><path
             d="m 2264.5577,-460.67324 c 12.8748,0 25.7497,0 39.0146,0 0,3.35865 0,6.7173 0,10.17773 -9.5161,0 -19.0323,0 -28.8369,0 0,6.15753 0,12.31506 0,18.65918 8.9564,0 17.9128,0 27.1407,0 0,3.35866 0,6.71731 0,10.17774 -8.9564,0 -17.9129,0 -27.1407,0 0,6.15753 0,12.31506 0,18.65918 9.5162,0 19.0324,0 28.8369,0 0,3.35865 0,6.7173 0,10.17773 -12.8748,0 -25.7496,0 -39.0146,0 0,-22.39101 0,-44.78203 0,-67.85156 z"
             fill="#000000"
             id="path5"
             style="fill:#757575;fill-opacity:1;stroke-width:1.69629" /><path
             d="m 2337.4982,-440.31777 c 6.2299,3.13305 9.6388,6.86479 11.874,13.57031 0.1375,2.6364 0.1825,5.27829 0.1657,7.91823 -0.01,1.51423 -0.011,3.02847 -0.017,4.58859 -0.014,1.57546 -0.028,3.15092 -0.043,4.77413 -0.01,1.59514 -0.015,3.19028 -0.023,4.83376 -0.02,3.93713 -0.048,7.87405 -0.083,11.81107 -5.0888,0 -10.1777,0 -15.2666,0 -1.8892,0.34986 -3.7785,0.69972 -5.725,1.06018 -7.6084,0.78709 -11.5551,-0.44995 -17.599,-4.98285 -2.8471,-3.84367 -3.4761,-6.57657 -3.8166,-11.34393 1.2935,-5.30321 3.1741,-8.22069 6.6791,-12.40411 7.763,-4.27754 15.1764,-3.40959 23.8541,-2.86249 -0.5598,-1.67933 -1.1196,-3.35865 -1.6963,-5.08887 -4.7626,-1.31337 -4.7626,-1.31337 -10.1777,-1.69629 -1.6793,1.31198 -1.6793,1.31198 -3.3926,2.65046 -1.1196,0.80467 -2.2391,1.60935 -3.3926,2.43841 -5.5129,-1.37823 -5.5129,-1.37823 -10.1777,-3.39258 7.0231,-12.7085 15.0443,-13.84158 28.8369,-11.87402 z m -18.6592,28.83691 c 0.643,5.58208 0.643,5.58208 3.3926,10.17774 8.0711,-0.51966 8.0711,-0.51966 15.1606,-4.02869 2.2664,-2.91744 2.2664,-2.91744 1.8023,-7.84534 -7.1675,-3.58374 -13.9028,-2.60549 -20.3555,1.69629 z"
             fill="#000000"
             id="path9"
             style="fill:#757575;fill-opacity:1;stroke-width:1.69629" /><path
             d="m 2422.3126,-460.67324 c 3.3587,0 6.7173,0 10.1777,0 0.5598,7.83686 1.1196,15.67371 1.6963,23.74805 1.6793,-1.11955 3.3587,-2.23911 5.0889,-3.39258 5.2004,-0.92517 10.0639,-0.91275 15.2666,0 5.5668,4.29107 7.9597,6.9163 10.1777,13.57031 0.1375,2.6364 0.1825,5.27829 0.1657,7.91822 -0.01,1.51424 -0.011,3.02848 -0.017,4.5886 -0.014,1.57546 -0.028,3.15092 -0.043,4.77412 -0.01,1.59515 -0.015,3.19029 -0.023,4.83376 -0.02,3.93714 -0.048,7.87405 -0.083,11.81108 -3.3586,0 -6.7173,0 -10.1777,0 -0.025,-0.94968 -0.05,-1.89936 -0.075,-2.87781 -0.1264,-4.30747 -0.2903,-8.61272 -0.4551,-12.91888 -0.038,-1.49456 -0.077,-2.98911 -0.116,-4.52896 -0.09,-2.15656 -0.09,-2.15656 -0.1822,-4.35668 -0.044,-1.32359 -0.089,-2.64718 -0.1346,-4.01088 -0.5487,-3.61171 -0.5487,-3.61171 -2.59,-6.65843 -4.3158,-3.09502 -4.3158,-3.09502 -15.1063,-0.27043 -1.1195,11.75528 -2.2391,23.51057 -3.3926,35.62207 -3.3586,0 -6.7173,0 -10.1777,0 0,-22.39101 0,-44.78203 0,-67.85156 z"
             fill="#000000"
             id="path10"
             style="fill:#757575;fill-opacity:1;stroke-width:1.69629" /><path
             d="m 2396.8683,-453.88808 c 2.7989,0 5.5978,0 8.4814,0 0,4.4782 0,8.95641 0,13.57031 3.9185,0 7.8369,0 11.8741,0 0,3.35865 0,6.71731 0,10.17774 -3.9185,0 -7.8369,0 -11.8741,0 0.2394,3.56982 0.4886,7.13898 0.7422,10.70782 0.1377,1.98764 0.2755,3.97528 0.4174,6.02315 0.3446,5.36473 0.3446,5.36473 2.233,10.40965 2.7989,0.55978 5.5978,1.11955 8.4815,1.69629 0.5597,2.79888 1.1195,5.59775 1.6963,8.48144 -2.4002,0.18463 -4.8045,0.31547 -7.2093,0.42408 -1.3382,0.0787 -2.6764,0.15743 -4.0552,0.23854 -4.0021,-0.66262 -4.0021,-0.66262 -7.8718,-3.10103 -4.3686,-6.51312 -3.6503,-12.38849 -3.3396,-20.03742 0.031,-1.42567 0.061,-2.85135 0.093,-4.32023 0.08,-3.50826 0.2014,-7.01553 0.3313,-10.52229 -2.7989,0 -5.5978,0 -8.4814,0 0,-3.35866 0,-6.71731 0,-10.17774 2.7988,0 5.5977,0 8.4814,0 0,-4.4782 0,-8.9564 0,-13.57031 z"
             fill="#000000"
             id="path15"
             style="fill:#757575;fill-opacity:1;stroke-width:1.69629" /><path
             d="m 2356.1573,-440.31777 c 3.3587,0 6.7173,0 10.1777,0 0.5598,1.11955 1.1196,2.2391 1.6963,3.39258 1.6793,-1.11955 3.3587,-2.2391 5.0889,-3.39258 5.4069,-0.21204 5.4069,-0.21204 10.1777,0 0,3.35865 0,6.7173 0,10.17773 -2.8338,0.68223 -2.8338,0.68223 -5.725,1.37824 -6.5195,1.43436 -6.5195,1.43436 -9.5416,7.10321 -0.6151,3.2695 -0.6151,3.2695 -0.7023,6.80503 -0.066,1.28464 -0.1312,2.56928 -0.1988,3.89285 -0.053,1.33275 -0.105,2.6655 -0.1591,4.03863 -0.066,1.35243 -0.1312,2.70485 -0.1987,4.09826 -0.1597,3.33341 -0.3004,6.66772 -0.4374,10.00214 -3.3586,0 -6.7173,0 -10.1777,0 0,-15.67371 0,-31.34742 0,-47.49609 z"
             fill="#000000"
             id="path16"
             style="fill:#757575;fill-opacity:1;stroke-width:1.69629" /></g><g
           id="g22"
           transform="translate(-1073.3059,216.13271)"><path
             d="m 2607.3141,-440.84786 c 2.1812,0.01 2.1812,0.01 4.4064,0.0199 3.969,0.51021 3.969,0.51021 9.0579,3.90279 0.5598,-1.11955 1.1195,-2.2391 1.6963,-3.39258 2.7989,0 5.5977,0 8.4814,0 0.1262,7.57513 0.2184,15.14969 0.2796,22.72555 0.025,2.57491 0.06,5.14975 0.1043,7.72441 0.062,3.70985 0.091,7.41872 0.1131,11.129 0.027,2.22967 0.053,4.45934 0.081,6.75658 -0.7656,7.87965 -3.2499,12.23709 -9.0591,17.50168 -7.9181,3.13422 -15.3736,3.55543 -23.7481,2.01434 -4.7062,-2.79456 -8.2863,-6.06351 -11.874,-10.17773 0.5598,-1.67933 1.1196,-3.35866 1.6963,-5.08887 3.8167,-1.27222 3.8167,-1.27222 8.4814,-1.69629 1.0496,1.11955 2.0992,2.2391 3.1806,3.39258 3.5152,4.04045 3.5152,4.04045 9.6476,3.71063 5.7827,-1.34771 5.7827,-1.34771 7.7261,-4.79732 1.6163,-3.63117 1.6163,-3.63117 3.1938,-9.09105 -1.3994,0.87465 -2.7989,1.7493 -4.2407,2.65046 -7.211,2.96165 -12.1324,3.25111 -19.5074,0.74212 -6.6609,-5.35774 -11.2262,-10.70212 -12.4438,-19.28203 -0.1519,-9.7517 0.6573,-15.49728 7.355,-23.12519 5.1777,-4.65661 8.4302,-5.75508 15.3726,-5.61896 z m -8.5875,12.40411 c -4.1678,6.2517 -4.7621,11.40202 -3.3925,18.65918 4.1822,5.90433 6.5289,8.12282 13.6763,9.43561 6.1437,-1.17646 8.1027,-2.71656 11.768,-7.73932 2.4323,-5.99961 1.6989,-8.47326 -0.3181,-14.73651 -2.5419,-5.60678 -2.5419,-5.60678 -6.4671,-8.05737 -6.1918,-1.74146 -9.9212,-0.83781 -15.2666,2.43841 z"
             fill="#000000"
             id="path3"
             style="fill:#757575;fill-opacity:1;stroke-width:1.69629" /><path
             d="m 2491.8605,-460.67324 c 13.4346,0 26.8692,0 40.7109,0 0,3.35865 0,6.7173 0,10.17773 -10.0759,0 -20.1519,0 -30.5332,0 0,6.15753 0,12.31506 0,18.65918 8.9564,0 17.9128,0 27.1407,0 0,3.35866 0,6.71731 0,10.17774 -8.9564,0 -17.9129,0 -27.1407,0 0,6.15753 0,12.31506 0,18.65918 10.076,0 20.1519,0 30.5332,0 0,3.35865 0,6.7173 0,10.17773 -13.4346,0 -26.8692,0 -40.7109,0 0,-22.39101 0,-44.78203 0,-67.85156 z"
             fill="#000000"
             id="path4"
             style="fill:#757575;fill-opacity:1;stroke-width:1.69629" /><path
             d="m 2736.1261,-440.31777 c 5.4516,2.72582 8.7694,4.99279 12.5101,9.75366 1.0602,3.81665 1.0602,3.81665 1.0602,17.38696 -11.1955,0 -22.391,0 -33.9258,0 2.9999,5.39546 2.9999,5.39546 6.7852,10.17774 5.7949,0.56579 5.7949,0.56579 11.874,0 1.7292,-1.66271 3.4307,-3.35531 5.0889,-5.08887 4.5588,0.53009 4.5588,0.53009 8.4814,1.69629 0,3.81665 0,3.81665 -1.6963,8.48144 -6.4831,5.32542 -13.1977,7.37076 -21.5216,6.78516 -6.9365,-1.24165 -11.12,-2.97944 -15.7967,-8.48144 -4.563,-9.21514 -6.1146,-17.03051 -3.3926,-27.14063 6.1417,-13.51178 16.7608,-15.57557 30.5332,-13.57031 z m -16.5388,12.61615 c -4.0032,3.59509 -4.0032,3.59509 -3.8167,6.04303 7.8369,0 15.6737,0 23.7481,0 -2.7965,-6.99556 -2.7965,-6.99556 -8.4815,-10.17773 -6.9778,-0.75011 -6.9778,-0.75011 -11.4499,4.1347 z"
             fill="#000000"
             id="path11"
             style="fill:#757575;fill-opacity:1;stroke-width:1.69629" /><path
             d="m 2658.0968,-440.31777 c 3.3587,0 6.7173,0 10.1777,0 0.5598,1.11955 1.1196,2.2391 1.6963,3.39258 1.6793,-1.11955 3.3587,-2.2391 5.0889,-3.39258 5.2022,-0.92549 10.06,-0.89516 15.2666,0 4.9662,3.62119 7.7705,6.0848 9.535,12.03305 0.9026,6.92329 0.8203,13.75367 0.7487,20.72653 -0.01,1.41803 -0.015,2.83605 -0.023,4.29705 -0.02,3.47987 -0.05,6.95968 -0.083,10.43946 -3.3586,0 -6.7173,0 -10.1777,0 -0.063,-2.1254 -0.1268,-4.25079 -0.1922,-6.4406 -0.1114,-2.80069 -0.2241,-5.60133 -0.3379,-8.40193 -0.038,-1.39944 -0.077,-2.79887 -0.116,-4.24072 -0.398,-10.10455 -0.398,-10.10455 -6.1391,-18.23511 -4.9886,0.31238 -4.9886,0.31238 -10.1777,1.69629 -4.7589,6.17366 -4.1558,14.16621 -4.4528,21.62769 -0.066,1.34477 -0.1312,2.68954 -0.1987,4.07507 -0.1594,3.30581 -0.3002,6.61251 -0.4374,9.91931 -3.3586,0 -6.7173,0 -10.1777,0 0,-15.67371 0,-31.34742 0,-47.49609 z"
             fill="#000000"
             id="path12"
             style="fill:#757575;fill-opacity:1;stroke-width:1.69629" /><path
             d="m 2539.3565,-440.31777 c 8.4814,0 8.4814,0 11.874,1.69629 1.1196,-0.55978 2.2391,-1.11955 3.3926,-1.69629 3.7438,-0.52346 3.7438,-0.52346 8.1634,-0.74213 2.168,-0.15415 2.168,-0.15415 4.3799,-0.31142 5.2866,1.26023 8.0194,3.44601 11.2847,7.78031 3.3614,7.17668 2.4714,14.99576 2.1464,22.74626 -0.038,1.73399 -0.076,3.46798 -0.1159,5.25452 -0.1,4.25877 -0.2387,8.51235 -0.4142,12.76855 -3.3586,0 -6.7173,0 -10.1777,0 -0.025,-1.00994 -0.05,-2.01989 -0.075,-3.06044 -0.1261,-4.5646 -0.2901,-9.12706 -0.4551,-13.69041 -0.038,-1.58968 -0.076,-3.17935 -0.1159,-4.8172 -0.09,-2.27955 -0.09,-2.27955 -0.1823,-4.60516 -0.044,-1.40353 -0.089,-2.80707 -0.1346,-4.25314 -0.4467,-4.16654 -0.4467,-4.16654 -5.8223,-6.89201 -4.382,0.14136 -4.382,0.14136 -8.4814,1.69629 -3.4165,5.12473 -3.8478,6.4571 -4.0949,12.26497 -0.066,1.36117 -0.1312,2.72234 -0.1988,4.12476 -0.053,1.41365 -0.105,2.82731 -0.1591,4.2838 -0.066,1.43333 -0.1312,2.86666 -0.1987,4.34342 -0.1598,3.53444 -0.3004,7.06973 -0.4374,10.60512 -3.3586,0 -6.7173,0 -10.1777,0 0,-15.67371 0,-31.34742 0,-47.49609 z"
             fill="#000000"
             id="path13"
             style="fill:#757575;fill-opacity:1;stroke-width:1.69629" /><path
             d="m 2639.4376,-440.31777 c 3.3587,0 6.7173,0 10.1777,0 0,15.67371 0,31.34742 0,47.49609 -3.3586,0 -6.7173,0 -10.1777,0 0,-15.67371 0,-31.34742 0,-47.49609 z"
             fill="#000000"
             id="path17"
             style="fill:#757575;fill-opacity:1;stroke-width:1.69629" /><path
             d="m 2645.4806,-460.99129 c 4.1347,0.31805 4.1347,0.31805 5.831,2.01434 0.318,4.13471 0.318,4.13471 0,8.48145 -1.1196,1.11955 -2.2391,2.2391 -3.3926,3.39258 -4.4527,-0.63611 -4.4527,-0.63611 -8.4814,-1.69629 -1.0602,-4.02869 -1.0602,-4.02869 -1.6963,-8.48145 3.3926,-3.39258 3.3926,-3.39258 7.7393,-3.71063 z"
             fill="#000000"
             id="path18"
             style="fill:#757575;fill-opacity:1;stroke-width:1.69629" /></g></g><g
         id="g19"
         transform="matrix(0.89486752,0,0,0.89486752,93.948028,-659.77717)"><path
           id="path1-8"
           d="m 917.27344,-19.111328 c -9.60247,0.751124 -19.11164,8.225286 -27.20703,13.0312499 -8.28147,4.8748681 -16.5902,9.6942632 -24.94336,14.4453125 -9.92162,5.6453376 -19.82107,11.3292446 -29.67969,17.0839846 -1.22596,0.715166 -2.4522,1.430027 -3.67969,2.142578 -19.25901,10.080078 -19.25913,10.079769 -30.44726,27.578125 -0.2139,0.708581 -0.42806,1.418384 -0.64844,2.148437 -4.58716,16.101585 2.07974,28.160987 9.52344,42.289063 0.67141,1.286758 1.34296,2.574198 2.01367,3.861328 3.72453,7.1259 7.54303,14.19369 11.48633,21.20117 10.88653,19.41035 10.88653,19.41038 9.375,26.875 -1.59906,3.01702 -3.68062,5.52057 -5.875,8.125 -1.20468,1.50397 -2.40779,3.0092 -3.60938,4.51563 -0.59876,0.73928 -1.19753,1.47855 -1.81445,2.24023 -14.64049,18.23757 -25.39457,39.09362 -34.88867,60.36914 -0.33798,0.75491 -0.67522,1.50932 -1.02344,2.28711 -1.48778,3.36249 -2.8744,6.69988 -4.12109,10.16211 -0.38543,1.06863 -0.77086,2.13726 -1.16797,3.23828 -0.29906,0.91652 -0.59812,1.83306 -0.90625,2.77735 -2.46388,3.53277 -5.54066,4.44295 -9.59375,5.28515 -4.58232,0.45409 -9.14755,0.5566 -13.75,0.625 -2.41152,0.0519 -4.82298,0.10652 -7.23438,0.16406 -1.18206,0.0279 -2.36414,0.0552 -3.58203,0.084 -4.15734,0.15312 -8.27813,0.51669 -12.41992,0.89453 -3.22617,0.2482 -6.43534,0.36261 -9.66992,0.44336 -1.12535,0.0284 -2.2507,0.0567 -3.41016,0.0859 -2.28889,0.0521 -4.57799,0.0964 -6.86719,0.13281 -12.08028,0.33211 -21.50629,1.68361 -30.0664,10.57031 l -2.38282,2.17578 c -6.45208,6.00604 -9.67114,11.33606 -9.99804,20.25 -0.0177,2.09299 -0.0199,4.18627 -0.008,6.2793 -0.005,1.14899 -0.0102,2.29861 -0.0156,3.48242 -0.0132,3.7816 -0.004,7.56216 0.006,11.34375 -0.002,2.63741 -0.004,5.2747 -0.008,7.91211 -0.005,5.521 0.002,11.04152 0.0156,16.5625 0.0163,6.36666 0.0101,12.73296 -0.006,19.09961 -0.0153,6.14563 -0.0125,12.29187 -0.004,18.4375 0.002,2.60585 -0.001,5.21252 -0.008,7.81836 -0.008,3.64505 0.005,7.28859 0.0215,10.93359 -0.006,1.07141 -0.0132,2.14223 -0.0195,3.2461 0.0997,11.7941 4.14334,18.19412 12.4082,26.45898 l 1.86328,1.86328 c 10.13226,9.3869 23.84663,8.22349 36.85547,8.60157 2.42058,0.0785 4.84115,0.15727 7.26172,0.23632 3.76503,0.11958 7.52963,0.23786 11.29492,0.34961 3.66873,0.1103 7.3375,0.22965 11.00586,0.35157 1.66766,0.0454 1.66583,0.0454 3.36719,0.0918 16.35057,0.56297 16.35243,0.56297 23.24609,3.91211 3.40761,4.19788 4.94457,9.05507 6.79297,14.09375 10.20108,26.51862 24.05249,51.90278 42.83984,73.39063 0.73348,0.84047 1.46696,1.68093 2.22266,2.54687 0.95133,1.019 0.95134,1.01901 1.92187,2.0586 2.04548,3.85632 1.98206,7.23327 1.32813,11.5039 -1.10076,3.40205 -2.6227,6.50871 -4.25,9.6875 -0.44747,0.90645 -0.89639,1.81413 -1.35742,2.74805 -3.26717,6.54389 -6.74411,12.96838 -10.26758,19.37695 -2.04638,3.72661 -4.08863,7.45542 -6.125,11.1875 -0.56171,1.0269 -1.1244,2.05331 -1.70313,3.11133 -1.7103,3.15717 -3.38184,6.33243 -5.04687,9.51367 -0.52578,0.95882 -1.05204,1.91837 -1.59375,2.90625 -5.25192,10.19244 -4.42207,19.58805 -1.63281,30.48438 3.65581,11.1722 12.00059,16.22919 21.72656,21.85937 0.9581,0.56026 1.91521,1.12004 2.90234,1.69727 3.11152,1.81614 6.2293,3.62337 9.34766,5.42773 1.03898,0.60199 2.07797,1.20398 3.14844,1.82422 6.4987,3.76283 13.00409,7.51191 19.51367,11.25586 4.45403,2.56369 8.90542,5.13448 13.35547,7.70508 9.23689,5.33434 18.47857,10.65998 27.73242,15.96484 0.85118,0.48944 1.70115,0.98011 2.57812,1.48438 10.64339,6.09043 17.00681,8.44974 29.09961,5.21484 0.74548,-0.21012 1.4917,-0.42024 2.25977,-0.63672 1.06891,-0.29391 1.06769,-0.29391 2.1582,-0.59375 8.26699,-2.50381 13.39762,-6.67848 17.9043,-13.96875 0.41846,-0.65194 0.83643,-1.30291 1.26758,-1.97461 0.88703,-1.38362 1.76812,-2.77173 2.64453,-4.16211 1.31636,-2.08078 2.6551,-4.14587 4.00195,-6.20703 4.93026,-7.55057 9.77262,-15.15571 14.58594,-22.78125 l 1.5332,-2.42578 c 2.1397,-3.38742 4.27381,-6.77849 6.35352,-10.20312 0.59426,-0.96808 1.18851,-1.93618 1.80078,-2.9336 0.7251,-1.20463 0.7251,-1.20463 1.46484,-2.43359 2.01443,-2.68427 3.71686,-4.36998 6.59766,-6.12891 6.10766,-0.56289 11.97135,0.45556 18.00005,1.4375 1.7082,0.27046 3.4165,0.54002 5.125,0.8086 1.1176,0.18067 1.1176,0.18091 2.2578,0.36523 6.4646,0.96065 12.7041,1.55377 19.2343,1.5918 0.8066,0.007 1.6123,0.0145 2.4434,0.0215 2.6045,0.017 5.2099,0.0225 7.8145,0.0254 0.8895,0.002 1.7789,0.004 2.6953,0.006 13.1212,0.007 25.8735,-0.64242 38.8789,-2.50195 4.1867,-0.59523 8.3687,-1.07483 12.5801,-1.46094 1.0719,-0.099 2.1456,-0.19681 3.25,-0.29883 2.7207,0.007 2.7207,0.006 5.5332,1.75586 0.7219,1.0725 1.4437,2.145 2.1875,3.25 0.5298,0.66387 1.0595,1.32773 1.6054,2.01172 5.4626,6.99447 9.7889,14.6352 14.25,22.28711 3.8633,6.60123 7.8576,13.0965 12.0196,19.51367 0.5107,0.79269 1.0206,1.58564 1.5468,2.40235 8.9847,13.74129 16.1565,21.05117 32.5782,24.78515 15.5702,3.02011 31.938,-10.79032 44.625,-18.27344 6.3854,-3.75369 12.8398,-7.37597 19.3125,-10.97656 8.3037,-4.62653 16.5596,-9.30981 24.7207,-14.18359 3.3155,-1.97671 6.6654,-3.88908 10.0254,-5.78906 0.9846,-0.56388 1.968,-1.12801 2.9824,-1.70899 1.9138,-1.09582 3.8343,-2.18025 5.7617,-3.25195 8.6657,-5.00129 14.8088,-10.74946 17.5098,-20.56641 0.2962,-1.04523 0.2954,-1.04499 0.5976,-2.11133 3.7376,-14.05215 0.021,-22.77503 -6.5351,-35.13867 -0.7914,-1.52423 -1.5817,-3.04897 -2.3711,-4.57422 -2.0685,-3.97433 -4.1712,-7.93131 -6.2793,-11.88476 -2.4063,-4.52502 -4.7829,-9.06418 -7.1621,-13.60352 -0.4439,-0.84401 -0.8884,-1.68705 -1.3457,-2.55664 -1.2883,-2.45614 -2.5667,-4.91781 -3.8418,-7.38086 -0.4627,-0.88752 -0.9257,-1.77504 -1.4024,-2.68945 -0.45,-0.87721 -0.9015,-1.75442 -1.3652,-2.6582 -0.4063,-0.78769 -0.8118,-1.57515 -1.2305,-2.38672 -1.7582,-3.97141 -2.3851,-7.09558 -1.0019,-11.26563 2.105,-3.05635 4.4911,-5.7872 6.9648,-8.54297 20.4189,-22.8391 34.6831,-51.81884 45.5234,-80.23828 0.3025,-0.78729 0.6045,-1.57557 0.9161,-2.38672 0.2611,-0.69376 0.5221,-1.38678 0.791,-2.10156 0.8028,-1.72974 0.8047,-1.73047 2.8047,-3.73047 7.8301,-1.99988 15.908,-2.34891 23.9492,-2.5625 1.0969,-0.0368 2.1921,-0.0734 3.3222,-0.11133 3.4713,-0.11618 6.9444,-0.2225 10.4161,-0.32617 32.4252,0.46484 32.4253,0.46483 59.3125,-15 4.8172,-5.53783 8.2367,-10.58585 8.2656,-18.14062 0.01,-1.01342 0.018,-2.02619 0.027,-3.07032 -10e-4,-1.65133 -10e-4,-1.65122 0,-3.33593 0.01,-1.16806 0.013,-2.33756 0.02,-3.54102 0.019,-3.86273 0.023,-7.7251 0.025,-11.58789 0,-1.33371 0.01,-2.6663 0.01,-4 0.018,-6.98588 0.027,-13.97308 0.025,-20.95898 -10e-4,-6.49786 0.019,-12.99442 0.051,-19.49219 0.026,-5.59 0.038,-11.17947 0.037,-16.76953 -5e-4,-3.33372 0.01,-6.66825 0.025,-10.00196 0.02,-3.72208 0.014,-7.44195 0,-11.16406 0.011,-1.09482 0.022,-2.19036 0.033,-3.31836 -0.063,-7.73211 -1.4226,-12.90644 -6.4844,-18.97461 -0.651,-0.60457 -1.3019,-1.20914 -1.9726,-1.83203 -0.7012,-0.65871 -1.4025,-1.31742 -2.125,-1.99609 -0.9596,-0.89912 -0.9591,-0.89912 -1.9375,-1.81641 -0.8044,-0.9075 -1.6088,-1.815 -2.4375,-2.75 -6.6965,-5.8798 -14.706,-7.28753 -23.3692,-7.5918 -0.9962,-0.0369 -0.9955,-0.0366 -2.0117,-0.0742 -1.4349,-0.0529 -2.8696,-0.10265 -4.3047,-0.15235 -2.2748,-0.0798 -4.5497,-0.16733 -6.8242,-0.25586 -6.4644,-0.25127 -12.929,-0.49748 -19.3945,-0.72265 -3.9614,-0.13844 -7.9223,-0.29064 -11.8828,-0.45117 -1.5048,-0.0584 -3.0105,-0.11196 -4.5157,-0.16016 -2.1088,-0.068 -4.2162,-0.15325 -6.3242,-0.24219 -1.7961,-0.0654 -1.7966,-0.0641 -3.6289,-0.13086 -3.6553,-0.51716 -6.1485,-1.58263 -9.3066,-3.46875 -1.3115,-1.90796 -1.3115,-1.90796 -2.1094,-4.05859 -0.4689,-1.19666 -0.4689,-1.19715 -0.9473,-2.41797 -0.3113,-0.8329 -0.6226,-1.66531 -0.9433,-2.52344 -0.6859,-1.6396 -1.3787,-3.2763 -2.0782,-4.91015 -0.3519,-0.83652 -0.7037,-1.67329 -1.0664,-2.53516 -9.8317,-23.28378 -21.5688,-45.36877 -37.0429,-65.42969 -0.6192,-0.80292 -0.6182,-0.80194 -1.25,-1.62109 -1.863,-2.39318 -3.7632,-4.73614 -5.7461,-7.03125 -2.9759,-3.50285 -4.6581,-5.72963 -5.6289,-10.28516 0.6346,-5.94252 3.9557,-11.06178 6.8125,-16.1875 4.0436,-7.31004 8.0477,-14.64011 12,-22 0.3406,-0.63166 0.6803,-1.26326 1.0312,-1.91406 2.2422,-4.16449 4.4501,-8.34586 6.6231,-12.546876 0.7214,-1.384398 1.453,-2.76236 2.1933,-4.136718 5.5817,-10.38697 7.9076,-19.068056 5.3047,-30.890625 -0.3858,-1.280646 -0.7903,-2.555873 -1.2148,-3.824219 -0.2698,-0.956161 -0.2699,-0.956163 -0.545,-1.931641 -3.409,-10.702956 -11.7926,-15.644273 -21.2675,-20.630859 -2.2599,-1.226456 -4.519,-2.454325 -6.7774,-3.683594 -1.0942,-0.590228 -2.189,-1.180948 -3.3164,-1.789062 -3.8753,-2.112714 -7.6798,-4.326981 -11.4687,-6.589844 -10.3932,-6.170367 -20.8736,-12.1880528 -31.3516,-18.2128908 -3.0209,-1.73922621 -6.0382,-3.4855456 -9.0547,-5.2324218 -31.34,-18.9267484 -31.3403,-18.9255344 -63.0039,-6.5898438 v 0 c -4.8884,6.1375149 -9.1858,12.469488 -13.2774,19.1601563 -0.6382,1.0301211 -1.276,2.0597571 -1.9336,3.1210941 -3.2852,5.315793 -6.5281,10.656538 -9.7422,16.015625 -0.6115,1.016183 -1.2235,2.033102 -1.8535,3.080078 -1.1495,1.914818 -2.2912,3.83414 -3.4258,5.757812 -10.1222,16.891338 -10.1227,16.890137 -16.4824,19.044922 -3.6124,-0.217564 -6.9072,-0.716853 -10.4375,-1.519531 -28.5097,-5.929434 -57.8044,-4.041219 -86.5,-0.625 -0.6782,0.07694 -1.356,0.155103 -2.0547,0.234375 -2.8477,0.334167 -5.6183,0.741758 -8.41796,1.367187 -2.58045,0.521541 -4.43842,0.81097 -7.02734,0.335938 -5.87254,-4.068121 -9.16158,-10.733195 -12.51563,-16.865234 -4.45612,-8.083633 -9.64637,-15.704849 -14.72656,-23.404297 -2.3437,-3.55352 -4.64612,-7.1252305 -6.89063,-10.7421879 -8.00044,-12.8543951 -14.63306,-20.0841371 -29.86718,-23.9882811 -3.55247,-0.460185 -3.55248,-0.460185 -7.1875,-0.5 -1.78471,-0.07734 -1.78471,-0.07734 -3.60547,-0.15625 z"
           style="fill:#9d9d9d;fill-opacity:1" /><path
           d="m 1061.0664,150.54521 c 0.7884,0.35046 1.5768,0.70093 2.3892,1.06201 29.7436,13.35327 56.3791,32.2483 80.9765,53.53027 1.7587,1.51489 3.5294,3.01496 5.3023,4.51319 5.4635,4.62765 10.8605,9.22379 15.8281,14.39062 1.592,1.592 3.2669,3.00984 5.0039,4.44141 2.3925,2.01132 4.4466,4.08284 6.4531,6.47656 4.6405,5.36342 9.6395,10.36456 14.6519,15.37622 1.6333,1.63548 3.2584,3.2788 4.8833,4.92261 6.5264,6.56095 13.2529,12.53552 20.5117,18.28711 1.607,1.35087 3.2115,2.70459 4.8125,4.0625 10.0821,8.05276 22.1439,15.65224 35.3008,15.28906 4.3146,-0.52546 6.5237,-1.58645 9.8867,-4.35156 1.8627,-4.79487 0.2087,-8.99921 -1.25,-13.6875 -0.2667,-0.86504 -0.5333,-1.73008 -0.8081,-2.62134 -8.8385,-27.58794 -22.2427,-51.8803 -39.9419,-74.69116 0.33,-0.66 0.66,-1.32 1,-2 7.6819,7.68188 15.3638,15.36377 23.0457,23.04565 0.4972,0.49692 0.9944,0.99384 1.5066,1.50582 1.4011,1.4019 2.7992,2.80676 4.1972,4.21171 2.163,2.14984 4.3936,4.16626 6.688,6.17432 5.0292,4.48791 9.7666,9.22809 14.5005,14.02441 3.7444,3.7764 7.566,7.36008 11.7065,10.70606 1.3555,1.33203 1.3555,1.33203 2.3555,4.33203 1.3122,0.70742 2.6486,1.37073 4,2 1.5661,1.33232 1.5661,1.33232 3.0811,2.86987 0.5744,0.57788 1.1489,1.15576 1.7409,1.75115 0.6104,0.62393 1.2209,1.24786 1.8499,1.8907 0.9618,0.96967 0.9618,0.96967 1.9432,1.95894 2.0498,2.06758 4.0928,4.1417 6.1349,6.21684 2.0287,2.05646 4.0588,4.11138 6.0921,6.16328 1.2629,1.27499 2.5232,2.55263 3.7802,3.83347 3.6824,3.72344 7.5025,7.20723 11.4654,10.62955 2.8209,2.48739 5.4633,5.13114 8.0998,7.8112 0.8202,0.82589 0.8202,0.82589 1.657,1.66846 2.2982,2.31433 4.5904,4.63471 6.883,6.95459 5.6215,5.68213 11.2014,11.31007 17.292,16.49414 5.3243,4.72565 10.2075,9.95225 15.2032,15.01953 4.4928,4.53208 9.018,8.92883 13.8652,13.08008 4.0927,3.54927 7.9799,7.32786 11.9121,11.05273 8.1934,7.74225 8.1934,7.74225 16.9688,14.80078 3.8627,2.94473 6.5902,5.15915 7.875,9.95313 0.4327,9.28278 -2.8266,14.38796 -8.8125,21.03906 -12.6247,13.2073 -26.8816,12.73952 -44.1563,13.27734 -2.2761,0.0785 -4.5521,0.15728 -6.8281,0.23633 -3.5279,0.11951 -7.0559,0.23661 -10.584,0.34839 -3.4462,0.11051 -6.892,0.23098 -10.3379,0.35278 -1.5568,0.0454 -1.5568,0.0454 -3.145,0.0918 -12.6642,-0.10456 -12.6642,-0.10456 -23.4487,4.91603 -2.1212,4.97274 -4.1229,9.96918 -6.0313,15.02734 -10.9098,27.99937 -26.7345,55.84133 -47.3433,77.94653 -1.8519,2.58719 -2.0292,4.88564 -1.7934,8.00269 1.2816,5.26034 3.9587,9.90699 6.5464,14.6206 1.4829,2.71026 2.9144,5.44645 4.3488,8.18262 1.2296,2.34406 2.4661,4.68438 3.7024,7.0249 3.5309,6.70528 7.0211,13.43158 10.503,20.16239 0.7304,1.41128 1.4616,2.82215 2.1935,4.2326 1.0344,1.99353 2.0658,3.98852 3.0965,5.98392 0.9022,1.74313 0.9022,1.74313 1.8225,3.52148 4.2081,8.52724 2.9707,17.28769 0.3611,26.13477 -0.1793,0.64864 -0.3587,1.29728 -0.5435,1.96558 -3.2826,10.24673 -11.1792,15.37578 -20.2065,20.34692 -2.155,1.22134 -4.3099,2.4427 -6.4648,3.66406 -1.1098,0.62165 -2.2195,1.2433 -3.3628,1.88379 -4.3582,2.45108 -8.6851,4.95406 -13.0118,7.46021 -3.2524,1.88392 -6.5087,3.76103 -9.7661,5.63647 -4.4008,2.53487 -8.7992,5.07406 -13.1953,7.61719 -10.7139,6.19631 -21.439,12.3727 -32.1992,18.48828 -1.4322,0.81815 -1.4322,0.81815 -2.8933,1.65283 -0.8873,0.50258 -1.7746,1.00515 -2.6887,1.52295 -0.7719,0.43869 -1.5438,0.87737 -2.3391,1.32935 -8.1778,4.26637 -15.2843,4.31195 -24.1009,1.58496 -14.7392,-4.86277 -20.7763,-13.84967 -28.728,-26.5276 -0.8946,-1.41322 -0.8946,-1.41322 -1.8074,-2.85498 -3.7908,-6.01316 -7.4886,-12.07817 -11.1523,-18.16943 -7.8137,-15.19903 -7.8137,-15.19903 -19.4778,-26.85059 -6.2088,0.15552 -12.4064,0.87263 -18.5508,1.75391 -13.7736,1.9716 -27.3057,2.55075 -41.1992,2.55859 -1.2781,0.005 -1.2781,0.005 -2.5819,0.01 -28.1495,0.0648 -28.1495,0.0648 -32.9979,-4.53088 -1.3218,-1.38183 -1.3218,-1.38183 -2.6702,-2.79162 -1.8654,-1.86074 -3.7311,-3.72118 -5.5972,-5.5813 -5.45391,-5.43759 -10.90531,-10.87774 -16.35525,-16.31934 -3.28813,-3.28291 -6.57718,-6.56487 -9.86835,-9.84472 -3.19808,-3.18715 -6.39365,-6.37679 -9.58756,-9.56812 -1.21024,-1.20841 -2.42135,-2.41594 -3.63338,-3.62253 -5.56086,-5.53689 -11.05859,-11.06518 -16.1573,-17.03718 -4.11658,-4.63281 -8.5921,-8.93843 -12.98455,-13.30806 -1.06639,-1.06452 -2.13255,-2.12926 -3.19851,-3.19421 -2.78095,-2.77718 -5.5649,-5.55133 -8.34953,-8.32483 -2.85106,-2.84077 -5.69924,-5.68443 -8.54767,-8.52784 -5.57077,-5.5601 -11.1447,-11.11701 -16.7207,-16.67187 4.08729,0 5.69164,2.13873 8.5625,4.75 16.7616,14.65831 36.77295,26.07721 57.4375,34.25 -0.48211,-1.14598 -0.96422,-2.29195 -1.46094,-3.47266 -0.63822,-1.52986 -1.27623,-3.05981 -1.91406,-4.58984 -0.31711,-0.75217 -0.63422,-1.50434 -0.96094,-2.2793 -3.09497,-7.44728 -5.02469,-14.13514 -5.03906,-22.2207 -0.0245,-0.72896 -0.049,-1.45793 -0.0742,-2.20898 -0.0281,-5.20659 1.06751,-8.07739 4.44922,-12.22852 6.27696,-5.79412 11.83387,-6.38925 20.0625,-6.375 0.98025,0.002 1.9605,0.003 2.97046,0.005 7.22315,0.11875 13.91477,1.08244 20.94532,2.66333 16.7297,3.73591 33.9505,5.39583 50.9592,7.39429 1.0102,0.11932 2.0203,0.23864 3.0611,0.36157 12.5129,1.42432 24.9758,2.1153 37.5678,2.18921 1.0021,0.006 1.0021,0.006 2.0245,0.0124 3.5478,0.0207 7.0955,0.035 10.6433,0.0445 2.8589,0.009 5.7173,0.0295 8.5761,0.0615 31.726,0.34741 62.4767,-2.85064 92.3147,-14.41919 0.8238,-0.31614 1.6476,-0.63229 2.4964,-0.95801 4.7798,-1.95832 7.941,-3.99936 11.3786,-7.97949 1.0248,-1.13695 1.0248,-1.13695 2.0703,-2.29688 11.9125,-14.22258 20.6124,-30.19258 28.9297,-46.70323 -0.678,0.4473 -1.3561,0.89461 -2.0547,1.35547 -15.7254,10.21497 -31.2474,15.73022 -49.9453,17.64453 -0.9384,0.11086 -1.8769,0.22172 -2.8437,0.33594 -88.9678,8.84894 -181.6187,-23.4304 -264.45342,-51.46338 -10.64096,-3.59504 -21.21626,-7.10309 -32.14038,-9.74756 -1.76199,-0.43022 -1.76199,-0.43022 -3.55957,-0.86914 -15.77643,-3.74533 -36.04822,-8.44612 -50.95215,0.2207 -4.27042,3.17231 -7.09831,6.92464 -9.80078,11.46094 -0.4125,0.68062 -0.825,1.36125 -1.25,2.0625 -0.66,0 -1.32,0 -2,0 -6.94478,-24.63016 -11.10614,-49.30348 -10,-75 0.0193,-0.87914 0.0387,-1.75828 0.0586,-2.66406 0.76994,-13.20566 9.54475,-27.36895 18.94141,-36.33594 6.65789,-5.55789 13.84549,-9.13641 22,-12 0.70254,-0.2475 1.40508,-0.495 2.12891,-0.75 13.01168,-3.6667 28.03773,-1.42214 40.87109,1.75 0.87946,0.21511 1.75893,0.43022 2.66504,0.65186 27.69238,6.93015 53.71741,17.89532 79.33496,30.34814 1.0559,0.51208 2.11181,1.02416 3.19971,1.55176 14.50018,7.06495 28.70168,14.61722 42.80028,22.44824 1.0878,0.6028 2.1756,1.2056 3.2964,1.82666 9.556,5.29536 19.1019,10.60875 28.645,15.92725 11.6471,6.48746 23.3336,12.9005 35.0586,19.24609 0.8161,0.44376 1.6323,0.88752 2.4731,1.34473 9.3666,5.08103 18.8399,9.83695 28.5269,14.28027 0.9507,0.43844 1.9014,0.87688 2.8809,1.32861 1.3274,0.59918 1.3274,0.59918 2.6816,1.21045 0.785,0.3553 1.5701,0.7106 2.3789,1.07666 2.162,0.9323 2.162,0.9323 5.0586,0.75928 1.8451,-2.2534 3.4574,-4.45712 5.0625,-6.875 0.4832,-0.71962 0.9663,-1.43924 1.4641,-2.18066 11.2442,-17.0121 19.5606,-34.88373 25.5359,-54.38184 0.3245,-1.03749 0.3245,-1.03749 0.6555,-2.09595 1.1037,-3.81944 1.7476,-6.70974 0.282,-10.46655 -1.8952,-2.23706 -1.8952,-2.23706 -4.375,-4.25 -0.9062,-0.77859 -1.8124,-1.55719 -2.7461,-2.35938 -0.95,-0.7889 -1.9001,-1.57781 -2.8789,-2.39062 -0.8985,-0.74766 -1.7969,-1.49531 -2.7227,-2.26563 -2.7466,-2.26054 -5.511,-4.49795 -8.2773,-6.73437 -1.7713,-1.45778 -3.5421,-2.91612 -5.3125,-4.375 -6.4896,-5.303 -13.0639,-10.49112 -19.6875,-15.625 -0.7979,-0.61859 -1.5959,-1.23718 -2.418,-1.87451 -10.567,-8.17105 -21.1923,-16.17776 -32.3012,-23.59863 -2.6411,-1.76807 -5.2711,-3.55214 -7.9019,-5.33545 -26.2536,-17.72971 -53.2674,-33.60888 -82.3789,-46.19141 -1.0052,-0.444 -1.0052,-0.444 -2.0308,-0.89697 -11.91403,-5.24422 -24.38929,-8.83722 -36.9692,-12.10303 -0.76087,-0.19787 -1.52174,-0.39574 -2.30566,-0.59961 -20.02564,-4.91461 -46.19201,-5.27854 -65.69434,1.59961 -0.62922,0.21431 -1.25845,0.42861 -1.90674,0.64941 -8.59661,2.97151 -16.37175,6.97654 -24.16748,11.61621 -2.27894,1.35094 -4.53711,2.59526 -6.92578,3.73438 2.93235,-5.99799 6.9581,-10.45392 11.50391,-15.31641 1.99128,-2.14086 3.87917,-4.31163 5.74609,-6.55859 7.87766,-8.99519 17.04433,-16.78672 26.5,-24.0625 0.67208,-0.51909 1.34417,-1.03818 2.03662,-1.573 8.60862,-6.49567 17.22134,-11.26471 27.46338,-14.677 1.0049,-0.34168 2.00981,-0.68336 3.04517,-1.0354 37.83194,-12.60051 78.67153,-7.90923 114.70483,8.2229 z"
           fill="#8c8c8c"
           id="path3-0" /><path
           d="m 909.06638,280.54521 c 0.87946,0.21511 1.75893,0.43022 2.66504,0.65186 27.69238,6.93015 53.71741,17.89532 79.33496,30.34814 1.0559,0.51208 2.11181,1.02416 3.19971,1.55176 14.50021,7.06495 28.70171,14.61722 42.80031,22.44824 1.0878,0.6028 2.1756,1.2056 3.2964,1.82666 9.556,5.29536 19.1019,10.60875 28.645,15.92725 11.6471,6.48746 23.3336,12.9005 35.0586,19.24609 0.8161,0.44376 1.6323,0.88752 2.4731,1.34473 17.5901,9.54198 35.6275,18.0385 54.5269,24.65527 0.6242,0.22526 1.2484,0.45053 1.8916,0.68262 28.7782,10.38268 62.9931,12.99817 91.7295,0.94238 3.694,-1.77655 6.8133,-3.736 9.8984,-6.42578 1.4805,-1.19922 1.4805,-1.19922 4.4805,-2.19922 -1.1974,7.87317 -3.162,15.1852 -5.8125,22.6875 -0.3307,0.98033 -0.6613,1.96066 -1.002,2.9707 -4.5064,12.91376 -10.6011,19.96875 -22.6855,26.4668 -11.8444,5.63586 -24.4957,8.5436 -37.5,9.875 -0.9385,0.11086 -1.8769,0.22172 -2.8438,0.33594 -88.9677,8.84894 -181.6186,-23.4304 -264.45334,-51.46338 -10.64096,-3.59504 -21.21626,-7.10309 -32.14038,-9.74756 -1.17466,-0.28682 -2.34932,-0.57363 -3.55957,-0.86914 -15.77643,-3.74533 -36.04822,-8.44612 -50.95215,0.2207 -4.27042,3.17231 -7.09831,6.92464 -9.80078,11.46094 -0.4125,0.68063 -0.825,1.36125 -1.25,2.0625 -0.66,0 -1.32,0 -2,0 -6.94477,-24.63016 -11.10614,-49.30348 -10,-75 0.0193,-0.87914 0.0387,-1.75828 0.0586,-2.66406 0.76994,-13.20566 9.54475,-27.36895 18.94141,-36.33594 6.65789,-5.55789 13.84549,-9.13641 22,-12 1.05381,-0.37125 1.05381,-0.37125 2.12891,-0.75 13.01168,-3.6667 28.03773,-1.42214 40.87109,1.75 z"
           fill="#547dbf"
           id="path4-0" /><path
           d="m 1019.0664,204.54521 c 0.9235,0.41089 1.8469,0.82178 2.7983,1.24512 15.3382,6.90783 29.8416,15.01184 44.2017,23.75488 0.8348,0.50644 1.6697,1.01288 2.5298,1.53467 25.2845,15.42215 49.3421,32.98637 72.4702,51.46533 1.3342,1.05961 1.3342,1.05961 2.6953,2.14062 9.5518,7.60553 19.0002,15.33611 28.2617,23.29297 1.8527,1.56248 3.7392,3.08724 5.6797,4.53907 0.7387,0.56589 1.4773,1.13179 2.2383,1.71484 0.6368,0.45762 1.2736,0.91523 1.9297,1.38672 2.0114,3.24052 1.0131,6.40523 0.1953,9.92578 -1.0535,3.86066 -2.2792,7.64761 -3.5625,11.4375 -0.3586,1.06042 -0.7172,2.12083 -1.0867,3.21338 -6.6267,19.15998 -16.0894,37.86994 -29.3508,53.34912 -4.1177,-0.64248 -7.502,-1.99048 -11.2773,-3.73828 -0.599,-0.27657 -1.1979,-0.55313 -1.815,-0.83807 -1.9517,-0.90505 -3.8988,-1.81961 -5.8452,-2.73615 -0.6703,-0.31396 -1.3407,-0.62791 -2.0313,-0.95139 -11.3489,-5.32493 -22.3899,-11.08327 -33.3198,-17.22537 -3.848,-2.14405 -7.7282,-4.22687 -11.6079,-6.31299 -8.8851,-4.7778 -17.7112,-9.64461 -26.4785,-14.63525 -12.4281,-7.06729 -25.0013,-13.85184 -37.625,-20.5625 -0.985,-0.52481 -1.97,-1.04962 -2.9849,-1.59033 -6.641,-3.53063 -13.311,-7.00018 -20.0151,-10.40967 -0.956,-0.48678 -1.912,-0.97356 -2.89697,-1.4751 -25.30405,-12.7762 -51.62969,-23.43985 -79.10303,-30.5249 -1.50893,-0.39977 -1.50893,-0.39977 -3.04834,-0.80762 -18.84443,-4.89029 -38.07887,-5.45166 -55.82666,3.55762 -13.38823,7.9654 -20.20381,19.14283 -26.125,33.25 -0.33,0 -0.66,0 -1,0 -0.31902,-7.55844 0.57957,-14.48513 2.125,-21.875 0.22591,-1.0928 0.45182,-2.18561 0.68457,-3.31152 5.26524,-24.72717 14.55837,-47.36765 26.86133,-69.42871 0.84718,-1.52007 1.6825,-3.04685 2.50195,-4.58204 6.406,-11.87043 14.88073,-17.82423 26.82715,-23.80273 0.64582,-0.32323 1.29164,-0.64646 1.95703,-0.97949 42.48791,-20.67533 90.17096,-8.23306 131.04297,9.97949 z"
           fill="#fefefe"
           id="path5-9" /><path
           d="m 872.06638,386.79521 c 1.10674,0.0722 1.10674,0.0722 2.23584,0.14575 7.71829,0.57578 15.22779,1.87958 22.76416,3.60425 1.16837,0.26394 1.16837,0.26394 2.36035,0.5332 16.79143,3.88356 33.00615,9.47342 49.30884,14.99428 81.60083,27.60399 174.09283,57.65192 291.33083,36.47252 3.3642,-1.9462 6.5154,-4.15618 9.6445,-6.46094 2.3555,-1.53906 2.3555,-1.53906 5.3555,-1.53906 -6.4584,12.94064 -12.9988,25.53807 -21.6455,37.16357 -1.3889,1.88302 -2.727,3.79628 -4.0655,5.71534 -5.7096,7.98092 -10.8423,12.73107 -20.289,16.12109 -1.0043,0.3698 -1.0043,0.3698 -2.0288,0.74707 -5.2732,1.92421 -10.5974,3.63351 -15.9712,5.25293 -1.2182,0.37125 -2.4363,0.7425 -3.6914,1.125 -23.6267,6.52474 -47.7621,7.50389 -72.0908,7.26624 -2.8031,-0.0217 -5.606,-0.0208 -8.4091,-0.02 -16.3517,-10e-4 -32.5485,-0.5406 -48.8087,-2.37124 -0.8661,-0.096 -1.7322,-0.19207 -2.6245,-0.29102 -5.0759,-0.57021 -10.145,-1.18502 -15.2117,-1.83129 -2.4946,-0.31752 -4.9903,-0.62633 -7.4861,-0.93433 -8.1594,-1.01954 -16.2937,-2.14543 -24.4082,-3.47852 -0.7155,-0.11637 -1.4311,-0.23274 -2.1683,-0.35264 -3.4769,-0.58779 -6.8746,-1.28727 -10.28603,-2.18276 -5.01399,-1.22149 -9.6806,-1.29744 -14.81519,-1.30444 -0.94617,-0.0245 -1.89234,-0.049 -2.86719,-0.0742 -6.21829,-0.0259 -10.96974,0.84394 -16.13281,4.4492 -5.55585,5.98323 -5.56096,11.36344 -5.42578,19.17187 0.46841,8.38703 3.76316,16.72043 7.62109,24.1211 0.80469,1.70703 0.80469,1.70703 0.80469,4.70703 -22.88312,-3.27534 -45.96523,-23.84123 -63,-38 -0.60844,-0.495 -1.21687,-0.99 -1.84375,-1.5 -19.51583,-15.93129 -35.28058,-37.45054 -47.15625,-59.5 -0.35111,-0.64324 -0.70222,-1.28648 -1.06397,-1.94922 -6.58635,-12.17843 -13.84559,-26.27301 -15.93603,-40.05078 2.65243,-8.20368 9.10813,-13.91507 16.5,-17.875 6.47405,-2.08094 12.75721,-2.31842 19.5,-1.875 z"
           fill="#c2c2c2"
           id="path6-0" /><path
           d="m 1061.0664,150.54521 c 0.7884,0.35046 1.5768,0.70093 2.3892,1.06201 29.7436,13.35327 56.3791,32.2483 80.9765,53.53027 1.7587,1.51489 3.5294,3.01496 5.3023,4.51319 5.4635,4.62765 10.8605,9.22379 15.8281,14.39062 1.592,1.592 3.2669,3.00984 5.0039,4.44141 2.3925,2.01132 4.4466,4.08284 6.4531,6.47656 4.6405,5.36342 9.6395,10.36456 14.6519,15.37622 1.6333,1.63548 3.2584,3.2788 4.8833,4.92261 6.5264,6.56095 13.2529,12.53552 20.5117,18.28711 1.607,1.35087 3.2115,2.70459 4.8125,4.0625 10.099,8.06626 22.1335,15.61438 35.3047,15.30078 5.0491,-0.63627 8.2861,-2.7666 11.8828,-6.36328 1.4753,4.91752 2.6401,9.82208 3.5625,14.875 0.1293,0.70689 0.2586,1.41378 0.3919,2.14209 0.8975,4.99506 1.7406,9.91642 2.0456,14.98291 0.088,1.10086 0.1753,2.20172 0.2656,3.33594 0.3312,7.06087 0.1117,12.05329 -4.3672,17.69922 -6.8719,7.11231 -14.0958,11.81533 -24.1484,12.40234 -26.5714,-1.27397 -51.9346,-23.78835 -71.0352,-40.26953 -1.1757,-1.0144 -2.3514,-2.02872 -3.5273,-3.04297 -0.588,-0.50781 -1.176,-1.01562 -1.7817,-1.53882 -4.6637,-4.00497 -9.4524,-7.82303 -14.3089,-11.59057 -3.6474,-2.83522 -7.203,-5.75059 -10.7219,-8.74561 -8.4978,-7.1305 -17.4527,-13.66484 -26.375,-20.25 -0.7346,-0.54527 -1.4692,-1.09055 -2.2261,-1.65234 -20.1114,-14.90356 -41.0322,-28.93362 -62.7739,-41.34766 -0.869,-0.49693 -1.738,-0.99387 -2.6333,-1.50586 -13.4481,-7.63487 -27.1747,-14.3601 -41.3667,-20.49414 -1.0052,-0.444 -1.0052,-0.444 -2.0308,-0.89697 -11.91403,-5.24422 -24.38929,-8.83722 -36.9692,-12.10303 -0.76087,-0.19787 -1.52174,-0.39574 -2.30566,-0.59961 -20.02564,-4.91461 -46.19201,-5.27854 -65.69434,1.59961 -0.62922,0.21431 -1.25845,0.42861 -1.90674,0.64941 -8.59661,2.97151 -16.37175,6.97654 -24.16748,11.61621 -2.27894,1.35094 -4.53711,2.59526 -6.92578,3.73438 2.93235,-5.99799 6.9581,-10.45392 11.50391,-15.31641 1.99128,-2.14086 3.87917,-4.31163 5.74609,-6.55859 7.87766,-8.99519 17.04433,-16.78672 26.5,-24.0625 0.67208,-0.51909 1.34417,-1.03818 2.03662,-1.573 8.60862,-6.49567 17.22134,-11.26471 27.46338,-14.677 1.0049,-0.34168 2.00981,-0.68336 3.04517,-1.0354 37.83194,-12.60051 78.67153,-7.90923 114.70483,8.2229 z"
           fill="#547dbf"
           id="path7-5" /><path
           d="m 872.06638,386.79521 c 1.10674,0.0722 1.10674,0.0722 2.23584,0.14575 7.71829,0.57578 15.22779,1.87958 22.76416,3.60425 1.16837,0.26394 1.16837,0.26394 2.36035,0.5332 16.79143,3.88356 33.00615,9.47342 49.30884,14.99428 41.68785,14.1022 83.82113,28.22632 127.24883,35.87608 1.0183,0.18265 2.0367,0.36529 3.0859,0.55347 0.8953,0.15445 1.7907,0.30889 2.7131,0.46802 2.283,0.57495 2.283,0.57495 5.283,2.57495 -25.8203,14.58483 -53.6513,23.78218 -83,28 -0.9765,0.15445 -0.9765,0.15445 -1.9727,0.31201 -51.29521,7.94273 -102.84661,-2.97812 -148.33982,-27.06592 -3.71985,-3.10889 -5.25714,-6.55008 -7.1875,-10.93359 -0.56811,-1.25237 -0.56811,-1.25237 -1.14771,-2.53003 -2.50997,-5.63163 -4.87493,-11.32179 -7.03979,-17.09497 -0.26813,-0.68602 -0.53625,-1.37205 -0.8125,-2.07886 -1.62438,-4.58105 -1.53002,-7.21238 0.5,-11.60864 4.17165,-7.41627 9.91526,-12.30509 18,-15 5.4104,-0.85726 10.52572,-1.11 16,-0.75 z"
           fill="#fefefe"
           id="path8-2" /><path
           d="m 1216.0664,489.54521 c 0.66,0.33 1.32,0.66 2,1 -5.9293,6.86026 -12.126,13.09057 -19,19 -1.3554,1.18723 -1.3554,1.18723 -2.7383,2.39844 -44.6598,38.31435 -103.7164,57.32752 -162.25,53.1289 -15.0455,-1.24478 -29.5739,-3.61971 -44.10887,-7.71679 -1.92984,-0.53886 -3.86664,-1.0534 -5.80957,-1.54297 -15.86202,-4.01515 -15.86202,-4.01515 -19.7417,-9.4043 -1.98664,-3.43814 -3.17305,-7.07727 -4.35156,-10.86328 -0.42152,-0.98227 -0.84305,-1.96453 -1.27734,-2.97656 -2.42858,-5.93653 -3.11432,-11.55018 -3.22266,-17.89844 -0.0186,-0.7139 -0.0372,-1.4278 -0.0564,-2.16333 0.0619,-5.11928 1.3738,-8.01126 4.5564,-11.96167 6.27696,-5.79412 11.83387,-6.38925 20.0625,-6.375 1.47038,0.002 1.47038,0.002 2.97046,0.005 7.22315,0.11875 13.91477,1.08244 20.94534,2.66333 16.7296,3.73591 33.9505,5.39583 50.9592,7.39429 1.5152,0.17897 1.5152,0.17897 3.061,0.36157 12.513,1.42431 24.9758,2.1153 37.5679,2.18921 1.0021,0.006 1.0021,0.006 2.0245,0.0124 3.5477,0.0207 7.0954,0.035 10.6432,0.0445 2.859,0.009 5.7174,0.0295 8.5762,0.0615 32.1355,0.35187 63.8619,-2.60282 93.7861,-15.26026 1.7812,-0.74845 3.5904,-1.42951 5.4036,-2.09642 z"
           fill="#3767b0"
           id="path9-8" /><path
           d="m 1161.0664,142.54521 c 1.2234,2.46069 1.2234,2.46069 2.418,5.58984 0.6688,1.74495 0.6688,1.74495 1.351,3.52515 0.474,1.27374 0.9468,2.54792 1.4185,3.82251 0.3626,0.96814 0.3626,0.96814 0.7325,1.95584 10.863,29.06778 18.1084,58.22129 21.08,89.10666 -5.8895,-4.99023 -11.5563,-9.99234 -16.4375,-16 -2.5537,-2.98967 -5.2191,-5.4161 -8.2031,-7.95703 -2.2581,-1.95523 -4.4555,-3.96611 -6.6436,-5.99903 -6.0413,-5.60894 -12.2784,-10.89066 -18.7158,-16.04394 -1.1426,-0.93405 -2.2845,-1.86899 -3.4258,-2.80469 -45.6869,-37.27558 -99.6162,-66.19354 -160.20701,-60.96826 -9.39808,1.11386 -18.45621,3.77256 -27.46485,6.58936 -3.9318,1.22338 -7.90047,2.21547 -11.90234,3.18359 48.75035,-52.100252 171.5967,-40.26886 226,-4 z"
           fill="#fefefe"
           id="path10-5" /><path
           d="m 1183.0664,317.54521 c 0.4767,0.36134 0.9534,0.72268 1.4446,1.09497 11.7002,8.82732 23.5885,17.15201 36.5554,24.03003 0.8349,0.44883 1.6698,0.89767 2.53,1.36011 9.3821,4.83433 19.7009,8.46266 30.2278,5.82348 7.9939,-2.60292 13.2622,-6.3074 18.0547,-13.18359 0.7219,-1.03125 1.4437,-2.0625 2.1875,-3.125 0.66,0 1.32,0 2,0 0.5578,14.68992 -0.9794,29.78511 -3.5273,44.24219 -0.5079,2.74838 -0.5079,2.74838 -0.7266,5.51562 -0.6051,5.13143 -1.6917,7.74133 -5.7461,11.05469 -22.3831,15.18344 -51.3689,17.01004 -77.5156,12.87109 -10.0221,-1.96621 -19.6407,-4.96816 -29.2969,-8.24609 -0.8787,-0.29286 -1.7575,-0.58572 -2.6628,-0.88745 -0.819,-0.28593 -1.638,-0.57186 -2.4817,-0.86646 -1.0979,-0.37814 -1.0979,-0.37814 -2.218,-0.76391 -1.825,-0.91968 -1.825,-0.91968 -3.825,-3.91968 0.678,-0.94617 1.3561,-1.89234 2.0547,-2.86719 15.8792,-22.4373 25.958,-45.58419 32.9453,-72.13281 z"
           fill="#c2c2c2"
           id="path11-1" /><path
           d="m 1267.0664,391.54521 c 0.66,0 1.32,0 2,0 -1.1974,7.87317 -3.162,15.1852 -5.8125,22.6875 -0.3306,0.98033 -0.6613,1.96066 -1.002,2.9707 -4.5064,12.91376 -10.6011,19.96875 -22.6855,26.4668 -11.8443,5.63586 -24.4956,8.5436 -37.5,9.875 -0.9384,0.11086 -1.8769,0.22172 -2.8437,0.33594 -27.2098,2.70634 -54.6885,-0.20316 -81.6563,-3.83594 -0.7985,-0.10751 -1.5971,-0.21501 -2.4198,-0.32578 -8.4157,-1.14307 -16.7736,-2.37999 -25.0802,-4.17422 0,-0.99 0,-1.98 0,-3 2.3461,-1.63311 4.6567,-3.0741 7.125,-4.5 17.9479,-10.80824 37.1398,-25.89718 48.875,-43.5 6.4094,0.58752 11.9864,2.65788 18,4.875 28.4882,10.20726 62.1585,12.70938 90.6133,0.75 4.7071,-2.25853 8.6988,-4.93707 12.3867,-8.625 z"
           fill="#3767b1"
           id="path12-5" /><path
           d="m 1161.0664,143.54521 c 5.3589,1.44791 9.283,3.96361 13.75,7.125 1.0589,0.74032 1.0589,0.74032 2.1392,1.49561 8.3825,5.9086 16.1758,12.31541 23.7436,19.23486 2.0861,1.88991 4.2137,3.70765 6.3672,5.51953 5.0778,4.42223 9.7646,9.39155 14,14.625 0,0.66 0,1.32 0,2 0.66,0 1.32,0 2,0 2.5489,2.73605 4.7053,5.81579 6.9375,8.8125 1.0095,1.35303 1.0095,1.35303 2.0393,2.7334 6.4251,8.76232 11.8927,17.889 17.0232,27.4541 0.3614,0.65855 0.7228,1.3171 1.0952,1.9956 20.1611,36.91003 20.1611,36.91003 18.6267,51.6814 -1.0282,3.30854 -2.8917,4.43622 -5.7219,6.323 -7.3776,2.4592 -14.0927,1.77005 -21.0532,-1.50781 -7.0496,-3.58876 -13.7021,-7.62131 -19.9468,-12.49219 -0.8559,-0.66516 -1.7119,-1.33031 -2.5937,-2.01563 -6.3422,-5.06639 -12.3765,-10.44084 -18.2461,-16.04296 -1.9806,-1.88394 -3.9317,-3.54075 -6.1016,-5.22657 -8.4928,-7.0093 -8.6764,-14.519 -9.7192,-24.83886 -3.0502,-25.84982 -11.3228,-50.92055 -20.3609,-75.19239 -1.4105,-3.86827 -2.7008,-7.76963 -3.9785,-11.68359 z"
           fill="#c2c2c2"
           id="path13-4" /><path
           d="m 1188.0664,247.54521 c 1.1115,0.94293 2.2216,1.88751 3.3311,2.83276 0.6183,0.52584 1.2366,1.05167 1.8737,1.59343 2.479,2.17323 4.7555,4.51587 7.0452,6.88631 5.2476,5.3405 10.8815,10.03732 16.75,14.6875 0.7992,0.67805 1.5984,1.35609 2.4219,2.05469 10.5852,8.89024 23.5252,17.64597 37.6953,17.30859 5.0491,-0.63627 8.2861,-2.7666 11.8828,-6.36328 1.4753,4.91752 2.6401,9.82208 3.5625,14.875 0.1293,0.70689 0.2586,1.41378 0.3918,2.14209 0.8976,4.99506 1.7407,9.91642 2.0457,14.98291 0.088,1.10086 0.1753,2.20172 0.2656,3.33594 0.3312,7.06087 0.1117,12.05329 -4.3672,17.69922 -6.8719,7.11231 -14.0958,11.81533 -24.1484,12.40234 -19.9599,-0.95698 -39.7382,-15.12501 -54.9038,-27.01196 -1.2017,-0.92792 -2.4339,-1.81816 -3.6963,-2.66162 -1.6851,-1.1897 -1.6851,-1.1897 -4.1499,-3.76392 -0.2187,-3.42578 -0.2187,-3.42578 0.5,-7.3125 0.2166,-1.25426 0.4331,-2.50852 0.6563,-3.80078 0.1303,-0.73493 0.2607,-1.46985 0.395,-2.22705 2.2182,-13.14759 2.7046,-25.85292 2.5737,-39.15967 -0.01,-1.80599 -0.019,-3.61197 -0.027,-5.41797 -0.022,-4.36082 -0.056,-8.72136 -0.098,-13.08203 z"
           fill="#3767b1"
           id="path14-1" /><path
           d="m 943.06638,140.54521 c 2,1 2,1 3,3 -5.445,1.485 -5.445,1.485 -11,3 2.63564,-2.63564 4.7207,-4.31831 8,-6 z"
           fill="#f0f2f6"
           id="path15-5" /></g></g></g></svg>
