<?xml version="1.0" encoding="UTF-8" standalone="no"?>
<!-- Created with Inkscape (http://www.inkscape.org/) -->

<svg
   width="1186.0251"
   height="574.71198"
   viewBox="0 0 1186.0251 574.71198"
   version="1.1"
   id="svg1"
   xml:space="preserve"
   xmlns="http://www.w3.org/2000/svg"
   xmlns:svg="http://www.w3.org/2000/svg"><defs
     id="defs1" /><g
     id="layer1"
     transform="translate(-806.44891,131.66444)"><g
       transform="matrix(0.07251235,0,0,-0.07251235,788.32083,466.56244)"
       fill="#000000"
       stroke="none"
       id="g43"
       style="fill:#202a38;fill-opacity:1"><path
         d="m 1712,7823 3,-428 42,-3 43,-3 2,388 3,388 h 1715 1715 v -695 -695 l -777,-3 -778,-2 v -305 -305 l 778,-2 777,-3 3,-117 3,-118 h -781 -780 v -310 -310 h 780 780 v -120 -120 h -780 -780 v -310 -310 h 780 780 l -2,-2017 -3,-2018 -115,2 c -462,10 -974,140 -1410,358 -336,168 -625,378 -900,654 -520,521 -853,1176 -964,1894 -22,139 -46,389 -46,480 0,25 -3,27 -45,27 h -45 l 6,-107 c 26,-519 136,-957 350,-1403 297,-616 770,-1135 1359,-1489 420,-253 855,-405 1365,-477 159,-23 710,-27 860,-6 535,74 971,222 1398,476 412,245 805,610 1079,1004 305,437 510,939 592,1448 45,286 44,213 48,2652 l 4,2332 H 5240 1710 Z"
         id="path1-82"
         style="fill:#202a38;fill-opacity:1" /><path
         d="m 10439,6776 c -108,-38 -164,-110 -164,-212 0,-49 5,-68 27,-101 37,-56 92,-80 246,-108 140,-25 163,-33 186,-67 38,-54 7,-125 -68,-159 -80,-36 -181,-17 -286,53 -50,33 -64,38 -71,27 -4,-8 -19,-29 -33,-48 l -26,-35 45,-32 c 171,-121 416,-119 529,6 73,81 75,204 4,277 -40,41 -109,67 -230,88 -112,19 -175,40 -188,65 -19,36 -11,80 18,110 63,62 178,61 305,-4 l 67,-34 31,44 c 16,24 27,49 24,54 -10,16 -94,56 -154,74 -66,19 -211,21 -262,2 z"
         id="path2-7"
         style="fill:#202a38;fill-opacity:1" /><path
         d="m 13436,6770 c -91,-36 -146,-111 -146,-199 0,-130 60,-178 270,-216 132,-24 183,-43 194,-70 3,-9 6,-35 6,-57 0,-30 -7,-46 -28,-68 -71,-71 -205,-65 -327,16 -38,24 -69,44 -71,44 -5,0 -64,-84 -64,-91 0,-5 21,-22 47,-40 178,-123 437,-108 537,30 29,40 31,49 31,124 0,70 -3,87 -23,115 -36,50 -109,81 -256,108 -79,14 -140,31 -155,42 -59,44 -46,123 26,158 27,13 58,18 106,17 57,-1 81,-8 145,-39 42,-21 79,-39 82,-41 6,-4 60,81 60,94 0,13 -91,57 -159,77 -77,22 -212,20 -275,-4 z"
         id="path3-5"
         style="fill:#202a38;fill-opacity:1" /><path
         d="m 15320,6775 c -104,-33 -207,-133 -246,-238 -28,-76 -26,-212 5,-289 47,-119 172,-216 306,-238 114,-19 259,25 330,99 l 29,31 -41,42 -41,41 -43,-37 c -106,-90 -261,-83 -356,16 -163,169 -51,470 176,472 71,0 120,-17 178,-61 l 46,-35 40,41 41,41 -29,30 c -17,17 -59,45 -94,63 -57,28 -76,32 -160,34 -63,2 -111,-2 -141,-12 z"
         id="path4-7"
         style="fill:#202a38;fill-opacity:1" /><path
         d="m 16027,6774 c -64,-20 -132,-87 -147,-146 -26,-95 10,-187 89,-227 20,-11 89,-29 152,-41 152,-27 196,-44 215,-82 42,-81 -41,-168 -162,-168 -51,0 -127,28 -194,71 -34,22 -66,37 -69,32 -4,-4 -20,-25 -36,-47 l -28,-39 24,-19 c 46,-37 165,-87 232,-98 113,-18 239,13 305,74 55,49 82,143 63,214 -26,97 -96,137 -295,171 -133,23 -153,31 -171,74 -24,58 17,118 95,137 75,18 187,-8 262,-61 l 31,-22 17,23 c 10,13 25,36 34,51 16,27 16,28 -16,47 -77,47 -140,65 -248,68 -76,3 -119,-1 -153,-12 z"
         id="path5-1"
         style="fill:#202a38;fill-opacity:1" /><path
         d="m 10960,6725 v -55 h 125 125 v -325 -325 h 65 65 l 2,323 3,322 128,3 127,3 v 54 55 h -320 -320 z"
         id="path6-5"
         style="fill:#202a38;fill-opacity:1" /><path
         d="m 11790,6673 c -24,-60 -89,-226 -146,-371 -57,-145 -104,-268 -104,-273 0,-6 28,-9 67,-7 l 66,3 37,100 37,100 h 158 158 l 37,-100 37,-100 73,-3 c 56,-2 71,0 67,10 -3,7 -69,178 -147,381 l -143,367 h -78 -77 z m 175,-178 c 30,-81 55,-151 55,-156 0,-5 -52,-9 -115,-9 -63,0 -115,3 -115,6 0,12 113,314 117,311 1,-2 28,-70 58,-152 z"
         id="path7-6"
         style="fill:#202a38;fill-opacity:1" /><path
         d="m 12212,6728 3,-53 128,-3 127,-3 v -324 -325 h 65 65 l 2,323 3,322 128,3 127,3 v 54 55 h -326 -325 z"
         id="path8-4"
         style="fill:#202a38;fill-opacity:1" /><path
         d="m 13000,6400 v -380 h 65 65 v 380 380 h -65 -65 z"
         id="path9-2"
         style="fill:#202a38;fill-opacity:1" /><path
         d="m 13970,6725 v -54 l 128,-3 127,-3 3,-322 2,-323 h 65 65 v 325 325 h 125 125 v 55 55 h -320 -320 z"
         id="path10-6"
         style="fill:#202a38;fill-opacity:1" /><path
         d="m 14750,6400 v -380 h 65 65 v 380 380 h -65 -65 z"
         id="path11-8"
         style="fill:#202a38;fill-opacity:1" /><path
         d="m 250,6465 v -305 h 305 305 v 305 305 H 555 250 Z"
         id="path12-8"
         style="fill:#202a38;fill-opacity:1" /><path
         d="m 1102,6468 3,-303 308,-3 307,-2 v 305 305 h -310 -310 z"
         id="path13-2"
         style="fill:#202a38;fill-opacity:1" /><path
         d="m 2820,6465 v -305 h 310 310 v 305 305 h -310 -310 z"
         id="path14-3"
         style="fill:#202a38;fill-opacity:1" /><path
         d="m 1960,5610 v -310 h 310 310 v 310 310 h -310 -310 z"
         id="path15-7"
         style="fill:#202a38;fill-opacity:1" /><path
         d="m 2820,5610 v -310 h 310 310 v 310 310 h -310 -310 z"
         id="path16-1"
         style="fill:#202a38;fill-opacity:1" /><path
         d="m 10312,5013 3,-378 268,-3 267,-2 v 55 55 h -200 -200 v 325 325 h -70 -70 z"
         id="path17-8"
         style="fill:#202a38;fill-opacity:1" /><path
         d="m 11020,5010 v -380 h 65 65 v 380 380 h -65 -65 z"
         id="path18-3"
         style="fill:#202a38;fill-opacity:1" /><path
         d="m 11290,5335 v -55 h 125 125 l 2,-322 3,-323 68,-3 67,-3 v 326 325 h 125 125 v 55 55 h -320 -320 z"
         id="path19"
         style="fill:#202a38;fill-opacity:1" /><path
         d="m 12070,5010 v -380 h 65 65 l 2,163 3,162 188,3 187,2 v -165 -165 h 65 65 v 380 380 h -65 -65 v -160 -160 l -187,2 -188,3 -3,158 -3,157 h -64 -65 z"
         id="path20"
         style="fill:#202a38;fill-opacity:1" /><path
         d="m 12900,5155 c 0,-304 14,-368 97,-451 61,-61 112,-79 228,-79 89,0 106,3 157,28 65,32 111,84 139,157 17,45 19,79 19,315 v 265 h -65 -65 v -250 c 0,-204 -3,-258 -15,-288 -32,-75 -90,-115 -170,-115 -77,0 -130,34 -171,113 -17,31 -19,65 -22,288 l -4,252 h -64 -64 z"
         id="path21"
         style="fill:#202a38;fill-opacity:1" /><path
         d="m 13926,5381 c -3,-5 -69,-170 -147,-367 -78,-198 -143,-365 -146,-371 -4,-10 13,-13 65,-13 h 70 l 37,105 38,105 159,-2 160,-3 37,-100 36,-100 73,-3 73,-3 -14,33 c -7,18 -74,189 -148,381 l -134,347 h -77 c -42,0 -79,-4 -82,-9 z m 137,-275 c 31,-83 54,-154 51,-158 -8,-12 -212,-10 -219,2 -5,9 20,85 97,289 5,13 10,22 12,20 2,-2 29,-71 59,-153 z"
         id="path22"
         style="fill:#202a38;fill-opacity:1" /><path
         d="m 14500,5010 v -380 h 60 60 v 281 c 0,177 4,278 10,274 5,-3 98,-129 206,-280 l 197,-275 h 59 58 v 380 380 h -60 -60 l -2,-272 -3,-272 -195,272 -195,272 h -67 -68 z"
         id="path23"
         style="fill:#202a38;fill-opacity:1" /><path
         d="m 15352,5013 3,-378 63,-3 62,-3 v 381 380 h -65 -65 z"
         id="path24"
         style="fill:#202a38;fill-opacity:1" /><path
         d="m 15889,5363 c -6,-16 -71,-182 -145,-370 -74,-188 -134,-347 -134,-353 0,-7 24,-10 66,-8 l 66,3 37,100 36,100 h 160 160 l 36,-100 37,-100 71,-3 c 39,-2 71,-1 71,1 0,2 -51,137 -114,298 -63,162 -128,331 -146,377 l -31,82 h -80 c -78,0 -80,-1 -90,-27 z m 151,-267 c 28,-75 50,-140 50,-146 0,-12 -217,-14 -224,-1 -3,4 20,77 51,161 39,107 59,147 65,137 4,-9 31,-76 58,-151 z"
         id="path25"
         style="fill:#202a38;fill-opacity:1" /><path
         d="m 1105,5047 c -3,-7 -4,-145 -3,-307 l 3,-295 308,-3 307,-2 v 310 310 h -305 c -237,0 -307,-3 -310,-13 z"
         id="path26"
         style="fill:#202a38;fill-opacity:1" /><path
         d="m 2820,4750 v -310 h 310 310 v 310 310 h -310 -310 z"
         id="path27"
         style="fill:#202a38;fill-opacity:1" /><path
         d="m 16492,4764 c -63,-44 -36,-143 38,-144 80,-1 106,116 34,149 -33,15 -45,14 -72,-5 z"
         id="path28"
         style="fill:#202a38;fill-opacity:1" /><path
         d="m 10432,4001 c -101,-35 -157,-115 -150,-213 8,-109 62,-147 258,-184 197,-36 230,-56 230,-142 0,-60 -22,-96 -77,-129 -41,-24 -59,-28 -123,-28 -84,1 -153,26 -225,84 l -40,33 -22,-27 c -30,-34 -29,-38 10,-67 176,-135 429,-126 531,19 37,54 46,125 21,188 -30,79 -95,113 -278,144 -171,29 -215,60 -204,142 18,136 222,171 391,67 51,-31 51,-31 78,16 13,23 -2,37 -77,71 -105,47 -232,58 -323,26 z"
         id="path29"
         style="fill:#202a38;fill-opacity:1" /><path
         d="m 10947,4003 c -4,-3 -7,-19 -7,-34 v -28 l 133,-3 132,-3 5,-345 5,-345 37,-3 38,-3 2,348 3,348 133,3 132,3 v 34 35 h -303 c -167,0 -307,-3 -310,-7 z"
         id="path30"
         style="fill:#202a38;fill-opacity:1" /><path
         d="m 11801,3992 c -19,-35 -291,-728 -291,-741 0,-8 14,-11 41,-9 46,3 36,-12 103,166 l 28,72 h 172 172 l 33,-92 c 54,-146 55,-148 102,-148 36,0 41,2 36,20 -3,11 -69,184 -148,385 l -142,365 h -48 c -37,0 -51,-4 -58,-18 z m 124,-250 c 36,-94 65,-176 65,-182 0,-6 -50,-10 -141,-10 -130,0 -141,1 -134,18 4,9 31,80 60,157 29,77 58,153 64,169 7,16 14,27 16,24 2,-2 34,-81 70,-176 z"
         id="path31"
         style="fill:#202a38;fill-opacity:1" /><path
         d="m 12150,3975 v -35 h 130 130 l 2,-347 3,-348 42,-3 43,-3 2,348 3,348 128,3 127,3 v 34 35 h -305 -305 z"
         id="path32"
         style="fill:#202a38;fill-opacity:1" /><path
         d="m 12920,3625 v -385 h 260 260 v 40 40 h -220 -220 v 135 135 h 150 150 v 35 34 l -147,3 -148,3 v 135 135 l 218,3 217,2 v 35 35 h -260 -260 z"
         id="path33"
         style="fill:#202a38;fill-opacity:1" /><path
         d="m 13900,3626 v -386 h 133 c 72,0 158,4 189,9 123,21 223,96 276,209 24,51 27,69 27,167 0,100 -3,116 -29,173 -36,79 -114,152 -194,183 -49,20 -80,23 -229,27 l -173,4 z m 375,280 c 62,-29 117,-86 147,-151 18,-39 23,-68 23,-130 0,-94 -24,-157 -83,-218 -67,-70 -100,-81 -249,-85 l -133,-4 v 306 306 h 123 c 108,0 128,-3 172,-24 z"
         id="path34"
         style="fill:#202a38;fill-opacity:1" /><path
         d="m 14756,3643 c -80,-202 -146,-375 -148,-383 -2,-11 8,-16 38,-18 l 40,-3 45,118 44,118 h 174 173 l 43,-115 43,-115 47,-3 c 41,-3 46,-1 41,15 -3,10 -70,182 -149,383 l -143,365 -51,3 -51,3 z m 268,89 c 36,-96 66,-176 66,-178 0,-2 -63,-4 -140,-4 -77,0 -140,3 -140,7 0,21 135,362 141,356 4,-5 37,-86 73,-181 z"
         id="path35"
         style="fill:#202a38;fill-opacity:1" /><path
         d="m 15247,4003 c -4,-3 -7,-19 -7,-34 v -28 l 133,-3 132,-3 5,-345 5,-345 37,-3 38,-3 2,348 3,348 133,3 132,3 v 34 35 h -303 c -167,0 -307,-3 -310,-7 z"
         id="path36"
         style="fill:#202a38;fill-opacity:1" /><path
         d="m 16102,3993 c -17,-33 -292,-733 -292,-744 0,-6 17,-9 42,-7 l 42,3 44,118 45,117 h 171 171 l 45,-117 45,-118 43,-3 c 26,-2 42,1 42,8 0,8 -179,473 -287,748 -8,20 -100,16 -111,-5 z m 123,-249 c 36,-93 65,-175 65,-181 0,-10 -34,-13 -135,-13 -110,0 -135,3 -135,14 0,8 27,86 60,173 33,87 63,164 66,172 2,8 7,12 10,9 2,-3 34,-81 69,-174 z"
         id="path37"
         style="fill:#202a38;fill-opacity:1" /><path
         d="m 11268,2617 c -104,-39 -191,-118 -236,-215 -24,-50 -27,-69 -27,-162 0,-93 3,-112 27,-163 168,-359 691,-279 716,110 l 5,73 h -172 -172 l 3,-37 3,-38 126,-5 126,-5 -12,-48 c -44,-175 -245,-258 -407,-170 -242,132 -203,513 59,589 94,27 205,3 291,-63 l 34,-26 26,26 26,26 -24,26 c -13,14 -53,40 -89,58 -58,28 -76,32 -165,34 -67,2 -113,-1 -138,-10 z"
         id="path38"
         style="fill:#202a38;fill-opacity:1" /><path
         d="m 13693,2612 c -181,-65 -289,-251 -254,-439 40,-216 228,-353 445,-322 68,9 170,56 206,94 l 23,25 -23,25 c -29,30 -35,31 -63,4 -39,-36 -119,-71 -177,-76 -122,-11 -237,55 -298,172 -24,44 -27,62 -27,145 0,83 3,101 27,145 31,59 100,127 155,151 24,11 66,17 113,18 85,1 153,-24 206,-75 l 30,-29 30,31 29,31 -35,29 c -69,59 -136,82 -240,86 -74,3 -107,-1 -147,-15 z"
         id="path39"
         style="fill:#202a38;fill-opacity:1" /><path
         d="m 10388,2247 c -82,-205 -148,-376 -148,-380 0,-4 19,-7 43,-7 h 43 l 44,120 45,120 170,-2 170,-3 44,-117 44,-118 h 44 c 24,0 43,3 43,8 0,4 -65,174 -144,377 l -145,370 -53,3 -53,3 z m 269,107 c 35,-92 63,-172 63,-180 0,-11 -26,-14 -133,-14 -74,0 -136,2 -139,6 -5,4 32,106 123,343 5,13 12,21 16,17 4,-3 35,-81 70,-172 z"
         id="path40"
         style="fill:#202a38;fill-opacity:1" /><path
         d="m 11930,2240 v -380 h 265 265 v 35 35 h -220 -221 l 3,138 3,137 148,3 147,3 v 34 35 h -150 -150 v 135 135 h 220 220 v 35 35 h -265 -265 z"
         id="path41"
         style="fill:#202a38;fill-opacity:1" /><path
         d="m 12640,2240 v -380 h 35 35 v 316 c 0,188 4,314 9,312 5,-1 108,-142 229,-313 l 219,-310 42,-3 41,-3 v 380 381 h -40 -40 l -2,-310 -3,-311 -219,311 -219,310 h -44 -43 z"
         id="path42"
         style="fill:#202a38;fill-opacity:1" /><path
         d="m 14213,2583 c 14,-21 79,-121 146,-222 l 121,-184 v -158 -159 h 45 45 v 153 153 l 145,221 c 80,121 145,224 145,227 0,3 -20,6 -44,6 h -43 l -119,-185 c -66,-102 -121,-185 -124,-185 -3,0 -58,84 -123,185 l -119,185 h -49 -49 z"
         id="path43"
         style="fill:#202a38;fill-opacity:1" /></g></g></svg>
